Amstelvar-Italic-opsz14-wght900-wdth50.ufo
<glyph name="numbersign" format="2">
  <advance width="1030"/>
  <unicode hex="0023"/>
  <outline>
    <contour>
      <point x="129.0" y="401.0" type="line"/>
      <point x="149.0" y="643.0" type="line"/>
      <point x="1041.0" y="643.0" type="line"/>
      <point x="1021.0" y="401.0" type="line"/>
    </contour>
    <contour>
      <point x="204.0" y="838.0" type="line"/>
      <point x="224.0" y="1080.0" type="line"/>
      <point x="1116.0" y="1080.0" type="line"/>
      <point x="1096.0" y="838.0" type="line"/>
    </contour>
    <contour>
      <point x="219.0" y="22.0" type="line"/>
      <point x="573.0" y="1459.0" type="line"/>
      <point x="672.0" y="1439.0" type="line"/>
      <point x="318.0" y="2.0" type="line"/>
    </contour>
    <contour>
      <point x="556.0" y="22.0" type="line"/>
      <point x="911.0" y="1459.0" type="line"/>
      <point x="1010.0" y="1439.0" type="line"/>
      <point x="655.0" y="2.0" type="line"/>
    </contour>
  </outline>
</glyph>
<glyph name="plus" format="2">
  <advance width="889"/>
  <unicode hex="002B"/>
  <outline>
    <contour>
      <point x="174.0" y="505.0" type="line"/>
      <point x="174.0" y="759.0" type="line"/>
      <point x="934.0" y="759.0" type="line"/>
      <point x="934.0" y="505.0" type="line"/>
    </contour>
    <contour>
      <point x="424.0" y="192.0" type="line"/>
      <point x="424.0" y="1072.0" type="line"/>
      <point x="684.0" y="1072.0" type="line"/>
      <point x="684.0" y="192.0" type="line"/>
    </contour>
  </outline>
</glyph>
<glyph name="zero" format="2">
  <advance width="1247"/>
  <unicode hex="0030"/>
  <outline>
    <contour>
      <point x="159.0" y="871.0" type="qcurve" smooth="yes"/>
      <point x="236.0" y="1192.0"/>
      <point x="599.0" y="1537.0"/>
      <point x="860.0" y="1513.0" type="qcurve" smooth="yes"/>
      <point x="1119.0" y="1488.0"/>
      <point x="1298.0" y="1030.0"/>
      <point x="1232.0" y="701.0" type="qcurve" smooth="yes"/>
      <point x="1157.0" y="331.0"/>
      <point x="779.0" y="-32.0"/>
      <point x="514.0" y="-10.0" type="qcurve" smooth="yes"/>
      <point x="254.0" y="13.0"/>
      <point x="67.0" y="489.0"/>
    </contour>
    <contour>
      <point x="649.0" y="854.0" type="qcurve" smooth="yes"/>
      <point x="579.0" y="544.0"/>
      <point x="493.0" y="166.0"/>
      <point x="539.0" y="148.0" type="qcurve" smooth="yes"/>
      <point x="600.0" y="128.0"/>
      <point x="674.0" y="427.0"/>
      <point x="741.0" y="721.0" type="qcurve" smooth="yes"/>
      <point x="805.0" y="1007.0"/>
      <point x="887.0" y="1338.0"/>
      <point x="835.0" y="1355.0" type="qcurve" smooth="yes"/>
      <point x="789.0" y="1373.0"/>
      <point x="719.0" y="1162.0"/>
    </contour>
  </outline>
</glyph>
<glyph name="four" format="2">
  <advance width="1139"/>
  <unicode hex="0034"/>
  <outline>
    <contour>
      <point x="57.0" y="405.0" type="line"/>
      <point x="57.0" y="550.0" type="line"/>
      <point x="922.0" y="1531.0" type="line"/>
      <point x="1170.0" y="1429.0" type="line"/>
      <point x="1195.0" y="1384.0" type="line"/>
      <point x="1039.0" y="530.0" type="line"/>
      <point x="1030.0" y="497.0" type="line"/>
      <point x="966.0" y="186.0" type="line"/>
      <point x="966.0" y="28.0" type="line"/>
      <point x="544.0" y="-24.0" type="line"/>
      <point x="514.0" y="41.0" type="line"/>
      <point x="608.0" y="493.0" type="line"/>
      <point x="618.0" y="530.0" type="line"/>
      <point x="709.0" y="1040.0" type="line"/>
      <point x="322.0" y="590.0" type="line"/>
      <point x="326.0" y="580.0" type="line"/>
      <point x="843.0" y="580.0" type="line"/>
      <point x="1148.0" y="580.0" type="line"/>
      <point x="1116.0" y="404.0" type="line"/>
      <point x="832.0" y="390.0" type="line"/>
    </contour>
  </outline>
</glyph>
<glyph name="colon" format="2">
  <advance width="515"/>
  <unicode hex="003A"/>
  <outline>
    <contour>
      <point x="26.0" y="185.0" type="qcurve" smooth="yes"/>
      <point x="26.0" y="270.0"/>
      <point x="149.0" y="394.0"/>
      <point x="246.0" y="394.0" type="qcurve" smooth="yes"/>
      <point x="341.0" y="394.0"/>
      <point x="465.0" y="270.0"/>
      <point x="465.0" y="185.0" type="qcurve" smooth="yes"/>
      <point x="465.0" y="103.0"/>
      <point x="341.0" y="-22.0"/>
      <point x="246.0" y="-22.0" type="qcurve" smooth="yes"/>
      <point x="149.0" y="-22.0"/>
      <point x="26.0" y="103.0"/>
    </contour>
    <contour>
      <point x="103.0" y="791.0" type="qcurve" smooth="yes"/>
      <point x="103.0" y="876.0"/>
      <point x="226.0" y="1000.0"/>
      <point x="323.0" y="1000.0" type="qcurve" smooth="yes"/>
      <point x="418.0" y="1000.0"/>
      <point x="542.0" y="876.0"/>
      <point x="542.0" y="791.0" type="qcurve" smooth="yes"/>
      <point x="542.0" y="709.0"/>
      <point x="418.0" y="584.0"/>
      <point x="323.0" y="584.0" type="qcurve" smooth="yes"/>
      <point x="226.0" y="584.0"/>
      <point x="103.0" y="709.0"/>
    </contour>
  </outline>
</glyph>
<glyph name="B" format="2">
  <advance width="1379"/>
  <unicode hex="0042"/>
  <outline>
    <contour>
      <point x="6.0" y="0.0" type="line"/>
      <point x="14.0" y="126.0" type="line"/>
      <point x="85.0" y="140.0" type="line"/>
      <point x="221.0" y="818.0" type="line"/>
      <point x="336.0" y="1339.0" type="line"/>
      <point x="221.0" y="1361.0" type="line"/>
      <point x="236.0" y="1500.0" type="line"/>
      <point x="978.0" y="1500.0" type="line" smooth="yes"/>
      <point x="1203.0" y="1500.0"/>
      <point x="1375.0" y="1332.0"/>
      <point x="1366.0" y="1163.0" type="qcurve" smooth="yes"/>
      <point x="1358.0" y="1016.0"/>
      <point x="1208.0" y="854.0"/>
      <point x="1082.0" y="830.0" type="qcurve"/>
      <point x="1081.0" y="823.0" type="line"/>
      <point x="1247.0" y="789.0"/>
      <point x="1354.0" y="565.0"/>
      <point x="1331.0" y="403.0" type="qcurve" smooth="yes"/>
      <point x="1304.0" y="216.0"/>
      <point x="1057.0" y="0.0"/>
      <point x="801.0" y="0.0" type="qcurve" smooth="yes"/>
    </contour>
    <contour>
      <point x="594.0" y="155.0" type="line"/>
      <point x="617.0" y="135.0" type="line"/>
      <point x="589.0" y="135.0" type="line" smooth="yes"/>
      <point x="727.0" y="135.0"/>
      <point x="855.0" y="261.0"/>
      <point x="878.0" y="410.0" type="qcurve" smooth="yes"/>
      <point x="901.0" y="557.0"/>
      <point x="804.0" y="727.0"/>
      <point x="664.0" y="727.0" type="qcurve" smooth="yes"/>
      <point x="703.0" y="727.0" type="line"/>
      <point x="701.0" y="713.0" type="line"/>
    </contour>
    <contour>
      <point x="734.0" y="887.0" type="line"/>
      <point x="729.0" y="864.0" type="line"/>
      <point x="691.0" y="864.0" type="line" smooth="yes"/>
      <point x="800.0" y="864.0"/>
      <point x="911.0" y="981.0"/>
      <point x="927.0" y="1119.0" type="qcurve" smooth="yes"/>
      <point x="942.0" y="1247.0"/>
      <point x="876.0" y="1360.0"/>
      <point x="780.0" y="1360.0" type="qcurve" smooth="yes"/>
      <point x="855.0" y="1360.0" type="line"/>
      <point x="826.0" y="1342.0" type="line"/>
    </contour>
  </outline>
</glyph>
<glyph name="L" format="2">
  <advance width="1109"/>
  <unicode hex="004C"/>
  <outline>
    <contour>
      <point x="-1.0" y="0.0" type="line"/>
      <point x="16.0" y="126.0" type="line"/>
      <point x="87.0" y="144.0" type="line"/>
      <point x="228.0" y="848.0" type="line"/>
      <point x="318.0" y="1348.0" type="line"/>
      <point x="221.0" y="1360.0" type="line"/>
      <point x="237.0" y="1500.0" type="line"/>
      <point x="953.0" y="1500.0" type="line"/>
      <point x="917.0" y="1360.0" type="line"/>
      <point x="826.0" y="1348.0" type="line"/>
      <point x="710.0" y="754.0" type="line"/>
      <point x="602.0" y="185.0" type="line"/>
      <point x="635.0" y="158.0" type="line"/>
      <point x="809.0" y="158.0" type="line"/>
      <point x="938.0" y="391.0" type="line"/>
      <point x="1099.0" y="391.0" type="line"/>
      <point x="970.0" y="0.0" type="line"/>
    </contour>
  </outline>
</glyph>
<glyph name="P" format="2">
  <advance width="1415"/>
  <unicode hex="0050"/>
  <outline>
    <contour>
      <point x="7.0" y="0.0" type="line"/>
      <point x="25.0" y="126.0" type="line"/>
      <point x="95.0" y="139.0" type="line"/>
      <point x="237.0" y="848.0" type="line"/>
      <point x="336.0" y="1339.0" type="line"/>
      <point x="221.0" y="1361.0" type="line"/>
      <point x="236.0" y="1500.0" type="line"/>
      <point x="976.0" y="1500.0" type="line" smooth="yes"/>
      <point x="1213.0" y="1500.0"/>
      <point x="1495.0" y="1277.0"/>
      <point x="1479.0" y="1051.0" type="qcurve" smooth="yes"/>
      <point x="1464.0" y="829.0"/>
      <point x="1155.0" y="554.0"/>
      <point x="871.0" y="554.0" type="qcurve" smooth="yes"/>
      <point x="806.0" y="554.0"/>
      <point x="653.0" y="571.0"/>
      <point x="612.0" y="583.0" type="qcurve"/>
      <point x="641.0" y="729.0" type="line"/>
      <point x="690.0" y="715.0"/>
      <point x="742.0" y="707.0"/>
      <point x="747.0" y="707.0" type="qcurve" smooth="yes"/>
      <point x="883.0" y="707.0"/>
      <point x="998.0" y="871.0"/>
      <point x="1015.0" y="1042.0" type="qcurve" smooth="yes"/>
      <point x="1029.0" y="1188.0"/>
      <point x="899.0" y="1342.0"/>
      <point x="764.0" y="1342.0" type="qcurve" smooth="yes"/>
      <point x="849.0" y="1342.0" type="line"/>
      <point x="823.0" y="1320.0" type="line"/>
      <point x="721.0" y="764.0" type="line"/>
      <point x="605.0" y="144.0" type="line"/>
      <point x="736.0" y="126.0" type="line"/>
      <point x="711.0" y="0.0" type="line"/>
    </contour>
  </outline>
</glyph>
<glyph name="Q" format="2">
  <advance width="1317"/>
  <unicode hex="0051"/>
  <outline>
    <contour>
      <point x="124.0" y="888.0" type="qcurve" smooth="yes"/>
      <point x="199.0" y="1243.0"/>
      <point x="598.0" y="1556.0"/>
      <point x="864.0" y="1519.0" type="qcurve" smooth="yes"/>
      <point x="1109.0" y="1485.0"/>
      <point x="1370.0" y="1053.0"/>
      <point x="1299.0" y="694.0" type="qcurve" smooth="yes"/>
      <point x="1225.0" y="322.0"/>
      <point x="812.0" y="-25.0"/>
      <point x="530.0" y="3.0" type="qcurve" smooth="yes"/>
      <point x="224.0" y="35.0"/>
      <point x="48.0" y="521.0"/>
    </contour>
    <contour>
      <point x="655.0" y="839.0" type="qcurve" smooth="yes"/>
      <point x="588.0" y="516.0"/>
      <point x="493.0" y="195.0"/>
      <point x="566.0" y="173.0" type="qcurve" smooth="yes"/>
      <point x="625.0" y="153.0"/>
      <point x="713.0" y="442.0"/>
      <point x="778.0" y="766.0" type="qcurve" smooth="yes"/>
      <point x="846.0" y="1109.0"/>
      <point x="888.0" y="1345.0"/>
      <point x="839.0" y="1361.0" type="qcurve" smooth="yes"/>
      <point x="772.0" y="1380.0"/>
      <point x="725.0" y="1171.0"/>
    </contour>
    <contour>
      <point x="11.0" y="-198.0" type="line"/>
      <point x="44.0" y="-136.0"/>
      <point x="211.0" y="-32.0"/>
      <point x="285.0" y="-26.0" type="qcurve"/>
      <point x="343.0" y="79.0"/>
      <point x="436.0" y="245.0"/>
      <point x="475.0" y="322.0" type="qcurve" smooth="yes"/>
      <point x="484.0" y="337.0"/>
      <point x="492.0" y="354.0"/>
      <point x="501.0" y="367.0" type="qcurve"/>
      <point x="514.0" y="364.0"/>
      <point x="627.0" y="314.0"/>
      <point x="636.0" y="301.0" type="qcurve"/>
      <point x="627.0" y="286.0"/>
      <point x="617.0" y="272.0"/>
      <point x="608.0" y="257.0" type="qcurve" smooth="yes"/>
      <point x="575.0" y="191.0"/>
      <point x="501.0" y="41.0"/>
      <point x="443.0" y="-67.0" type="qcurve"/>
      <point x="685.0" y="-180.0" type="line" smooth="yes"/>
      <point x="738.0" y="-203.0"/>
      <point x="834.0" y="-148.0"/>
      <point x="866.0" y="-94.0" type="qcurve"/>
      <point x="959.0" y="-167.0" type="line"/>
      <point x="907.0" y="-271.0"/>
      <point x="733.0" y="-455.0"/>
      <point x="621.0" y="-449.0" type="qcurve"/>
      <point x="199.0" y="-254.0" type="line"/>
      <point x="160.0" y="-249.0"/>
      <point x="96.0" y="-275.0"/>
      <point x="70.0" y="-303.0" type="qcurve"/>
    </contour>
  </outline>
</glyph>
<glyph name="R" format="2">
  <advance width="1488"/>
  <unicode hex="0052"/>
  <outline>
    <contour>
      <point x="26.0" y="0.0" type="line"/>
      <point x="34.0" y="126.0" type="line"/>
      <point x="105.0" y="140.0" type="line"/>
      <point x="246.0" y="848.0" type="line"/>
      <point x="336.0" y="1339.0" type="line"/>
      <point x="221.0" y="1361.0" type="line"/>
      <point x="236.0" y="1500.0" type="line"/>
      <point x="1050.0" y="1500.0" type="line" smooth="yes"/>
      <point x="1293.0" y="1500.0"/>
      <point x="1512.0" y="1273.0"/>
      <point x="1503.0" y="1103.0" type="qcurve" smooth="yes"/>
      <point x="1491.0" y="901.0"/>
      <point x="1219.0" y="676.0"/>
      <point x="1015.0" y="676.0" type="qcurve" smooth="yes"/>
      <point x="954.0" y="676.0"/>
      <point x="698.0" y="675.0"/>
      <point x="647.0" y="680.0" type="qcurve"/>
      <point x="665.0" y="825.0" type="line"/>
      <point x="769.0" y="825.0" type="line"/>
      <point x="747.0" y="825.0" type="line" smooth="yes"/>
      <point x="886.0" y="825.0"/>
      <point x="1031.0" y="966.0"/>
      <point x="1038.0" y="1106.0" type="qcurve" smooth="yes"/>
      <point x="1044.0" y="1225.0"/>
      <point x="962.0" y="1342.0"/>
      <point x="838.0" y="1342.0" type="qcurve" smooth="yes"/>
      <point x="844.0" y="1342.0" type="line"/>
      <point x="817.0" y="1324.0" type="line"/>
      <point x="726.0" y="734.0" type="line"/>
      <point x="614.0" y="140.0" type="line"/>
      <point x="726.0" y="126.0" type="line"/>
      <point x="711.0" y="0.0" type="line"/>
    </contour>
    <contour>
      <point x="765.0" y="719.0" type="line"/>
      <point x="1193.0" y="750.0" type="line"/>
      <point x="1206.0" y="668.0" type="line" smooth="yes"/>
      <point x="1237.0" y="474.0"/>
      <point x="1398.0" y="146.0"/>
      <point x="1500.0" y="129.0" type="qcurve"/>
      <point x="1470.0" y="0.0" type="line"/>
      <point x="1179.0" y="0.0" type="line" smooth="yes"/>
      <point x="989.0" y="0.0"/>
      <point x="793.0" y="299.0"/>
      <point x="775.0" y="577.0" type="qcurve" smooth="yes"/>
    </contour>
  </outline>
</glyph>
<glyph name="S" format="2">
  <advance width="1027"/>
  <unicode hex="0053"/>
  <outline>
    <contour>
      <point x="-80.0" y="24.0" type="line"/>
      <point x="0.0" y="457.0" type="line"/>
      <point x="159.0" y="457.0" type="line"/>
      <point x="153.0" y="339.0" type="line" smooth="yes"/>
      <point x="148.0" y="249.0"/>
      <point x="294.0" y="144.0"/>
      <point x="384.0" y="144.0" type="qcurve" smooth="yes"/>
      <point x="473.0" y="144.0"/>
      <point x="585.0" y="237.0"/>
      <point x="592.0" y="344.0" type="qcurve" smooth="yes"/>
      <point x="597.0" y="438.0"/>
      <point x="397.0" y="587.0"/>
      <point x="312.0" y="661.0" type="qcurve" smooth="yes"/>
      <point x="211.0" y="743.0"/>
      <point x="118.0" y="1056.0"/>
      <point x="146.0" y="1186.0" type="qcurve" smooth="yes"/>
      <point x="179.0" y="1361.0"/>
      <point x="422.0" y="1529.0"/>
      <point x="677.0" y="1529.0" type="qcurve" smooth="yes"/>
      <point x="754.0" y="1529.0"/>
      <point x="887.0" y="1493.0"/>
      <point x="927.0" y="1462.0" type="qcurve"/>
      <point x="961.0" y="1527.0" type="line"/>
      <point x="1097.0" y="1498.0" type="line"/>
      <point x="1021.0" y="1065.0" type="line"/>
      <point x="854.0" y="1065.0" type="line"/>
      <point x="863.0" y="1236.0" type="line"/>
      <point x="864.0" y="1297.0"/>
      <point x="765.0" y="1365.0"/>
      <point x="703.0" y="1365.0" type="qcurve" smooth="yes"/>
      <point x="627.0" y="1365.0"/>
      <point x="554.0" y="1340.0"/>
      <point x="542.0" y="1258.0" type="qcurve" smooth="yes"/>
      <point x="530.0" y="1173.0"/>
      <point x="648.0" y="1037.0"/>
      <point x="757.0" y="942.0" type="qcurve" smooth="yes"/>
      <point x="892.0" y="837.0"/>
      <point x="1011.0" y="585.0"/>
      <point x="991.0" y="427.0" type="qcurve" smooth="yes"/>
      <point x="965.0" y="212.0"/>
      <point x="687.0" y="-11.0"/>
      <point x="405.0" y="-11.0" type="qcurve" smooth="yes"/>
      <point x="316.0" y="-11.0"/>
      <point x="148.0" y="24.0"/>
      <point x="99.0" y="70.0" type="qcurve"/>
      <point x="59.0" y="-4.0" type="line"/>
    </contour>
  </outline>
</glyph>
<glyph name="T" format="2">
  <advance width="1269"/>
  <unicode hex="0054"/>
  <outline>
    <contour>
      <point x="137.0" y="1079.0" type="line"/>
      <point x="220.0" y="1500.0" type="line"/>
      <point x="1431.0" y="1500.0" type="line"/>
      <point x="1348.0" y="1079.0" type="line"/>
      <point x="1193.0" y="1079.0" type="line"/>
      <point x="1215.0" y="1342.0" type="line"/>
      <point x="1057.0" y="1342.0" type="line"/>
      <point x="1043.0" y="1322.0" type="line"/>
      <point x="930.0" y="754.0" type="line"/>
      <point x="816.0" y="141.0" type="line"/>
      <point x="945.0" y="126.0" type="line"/>
      <point x="931.0" y="0.0" type="line"/>
      <point x="185.0" y="0.0" type="line"/>
      <point x="204.0" y="126.0" type="line"/>
      <point x="311.0" y="141.0" type="line"/>
      <point x="430.0" y="754.0" type="line"/>
      <point x="540.0" y="1322.0" type="line"/>
      <point x="536.0" y="1342.0" type="line"/>
      <point x="378.0" y="1342.0" type="line"/>
      <point x="292.0" y="1079.0" type="line"/>
    </contour>
  </outline>
</glyph>
<glyph name="bracketright" format="2">
  <advance width="684"/>
  <unicode hex="005D"/>
  <outline>
    <contour>
      <point x="-155.0" y="-480.0" type="line"/>
      <point x="-131.0" y="-361.0" type="line"/>
      <point x="1.0" y="-342.0" type="line"/>
      <point x="180.0" y="512.0" type="line"/>
      <point x="333.0" y="1362.0" type="line"/>
      <point x="207.0" y="1381.0" type="line"/>
      <point x="229.0" y="1500.0" type="line"/>
      <point x="800.0" y="1500.0" type="line"/>
      <point x="777.0" y="1382.0" type="line"/>
      <point x="755.0" y="1362.0" type="line"/>
      <point x="578.0" y="512.0" type="line"/>
      <point x="423.0" y="-342.0" type="line"/>
      <point x="439.0" y="-362.0" type="line"/>
      <point x="416.0" y="-480.0" type="line"/>
    </contour>
  </outline>
</glyph>
<glyph name="grave" format="2">
  <advance width="1024"/>
  <unicode hex="0060"/>
  <outline>
    <contour>
      <point x="456.0" y="1304.0" type="line" smooth="yes"/>
      <point x="403.0" y="1339.0"/>
      <point x="354.0" y="1415.0"/>
      <point x="354.0" y="1459.0" type="qcurve" smooth="yes"/>
      <point x="354.0" y="1500.0"/>
      <point x="434.0" y="1571.0"/>
      <point x="475.0" y="1571.0" type="qcurve" smooth="yes"/>
      <point x="528.0" y="1571.0"/>
      <point x="627.0" y="1485.0"/>
      <point x="665.0" y="1429.0" type="qcurve" smooth="yes"/>
      <point x="806.0" y="1218.0" type="line"/>
      <point x="718.0" y="1129.0" type="line"/>
    </contour>
  </outline>
</glyph>
<glyph name="g" format="2">
  <advance width="1250"/>
  <unicode hex="0067"/>
  <outline>
    <contour>
      <point x="53.0" y="265.0" type="qcurve" smooth="yes"/>
      <point x="68.0" y="576.0"/>
      <point x="465.0" y="1047.0"/>
      <point x="779.0" y="1047.0" type="qcurve" smooth="yes"/>
      <point x="813.0" y="1047.0"/>
      <point x="901.0" y="1020.0"/>
      <point x="916.0" y="1004.0" type="qcurve"/>
      <point x="1085.0" y="1060.0" type="line"/>
      <point x="1230.0" y="1060.0" type="line"/>
      <point x="1250.0" y="833.0" type="line"/>
      <point x="1189.0" y="574.0" type="line" smooth="yes"/>
      <point x="1148.0" y="401.0"/>
      <point x="1133.0" y="290.0"/>
      <point x="1075.0" y="50.0" type="qcurve" smooth="yes"/>
      <point x="1004.0" y="-254.0"/>
      <point x="599.0" y="-474.0"/>
      <point x="271.0" y="-464.0" type="qcurve"/>
      <point x="117.0" y="-419.0" type="line"/>
      <point x="123.0" y="-308.0" type="line"/>
      <point x="321.0" y="-302.0" type="line" smooth="yes"/>
      <point x="456.0" y="-297.0"/>
      <point x="629.0" y="-140.0"/>
      <point x="667.0" y="44.0" type="qcurve" smooth="yes"/>
      <point x="681.0" y="118.0" type="line"/>
      <point x="637.0" y="86.0"/>
      <point x="476.0" y="-11.0"/>
      <point x="344.0" y="-11.0" type="qcurve" smooth="yes"/>
      <point x="198.0" y="-11.0"/>
      <point x="47.0" y="148.0"/>
    </contour>
    <contour>
      <point x="518.0" y="304.0" type="qcurve" smooth="yes"/>
      <point x="513.0" y="243.0"/>
      <point x="535.0" y="196.0"/>
      <point x="567.0" y="196.0" type="qcurve" smooth="yes"/>
      <point x="595.0" y="196.0"/>
      <point x="705.0" y="340.0"/>
      <point x="732.0" y="449.0" type="qcurve" smooth="yes"/>
      <point x="823.0" y="828.0" type="line"/>
      <point x="823.0" y="861.0"/>
      <point x="809.0" y="898.0"/>
      <point x="777.0" y="898.0" type="qcurve" smooth="yes"/>
      <point x="694.0" y="898.0"/>
      <point x="530.0" y="469.0"/>
    </contour>
  </outline>
</glyph>
<glyph name="r" format="2">
  <advance width="1101"/>
  <unicode hex="0072"/>
  <outline>
    <contour>
      <point x="81.0" y="-10.0" type="line"/>
      <point x="46.0" y="87.0" type="line"/>
      <point x="150.0" y="554.0" type="line"/>
      <point x="195.0" y="804.0" type="line"/>
      <point x="69.0" y="800.0" type="line"/>
      <point x="76.0" y="941.0" type="line"/>
      <point x="448.0" y="1050.0" type="line"/>
      <point x="622.0" y="1050.0" type="line"/>
      <point x="644.0" y="848.0" type="line"/>
      <point x="660.0" y="779.0" type="line"/>
      <point x="538.0" y="157.0" type="line"/>
      <point x="698.0" y="132.0" type="line"/>
      <point x="696.0" y="30.0" type="line"/>
    </contour>
    <contour>
      <point x="854.0" y="580.0" type="line"/>
      <point x="864.0" y="837.0" type="line"/>
      <point x="800.0" y="837.0"/>
      <point x="630.0" y="721.0"/>
      <point x="549.0" y="649.0" type="qcurve"/>
      <point x="529.0" y="759.0" type="line"/>
      <point x="635.0" y="874.0"/>
      <point x="853.0" y="1064.0"/>
      <point x="978.0" y="1064.0" type="qcurve" smooth="yes"/>
      <point x="1064.0" y="1064.0"/>
      <point x="1131.0" y="979.0"/>
      <point x="1131.0" y="912.0" type="qcurve" smooth="yes"/>
      <point x="1131.0" y="778.0"/>
      <point x="998.0" y="580.0"/>
      <point x="910.0" y="580.0" type="qcurve" smooth="yes"/>
    </contour>
  </outline>
</glyph>
<glyph name="t" format="2">
  <advance width="861"/>
  <unicode hex="0074"/>
  <outline>
    <contour>
      <point x="151.0" y="-15.0" type="line"/>
      <point x="86.0" y="103.0" type="line"/>
      <point x="174.0" y="512.0" type="line"/>
      <point x="224.0" y="790.0" type="line"/>
      <point x="63.0" y="802.0" type="line"/>
      <point x="85.0" y="916.0" type="line"/>
      <point x="237.0" y="952.0"/>
      <point x="474.0" y="1136.0"/>
      <point x="517.0" y="1257.0" type="qcurve"/>
      <point x="734.0" y="1257.0" type="line"/>
      <point x="785.0" y="1180.0" type="line"/>
      <point x="666.0" y="524.0" type="line"/>
      <point x="615.0" y="204.0" type="line"/>
      <point x="801.0" y="197.0" type="line"/>
      <point x="796.0" y="66.0" type="line"/>
    </contour>
    <contour>
      <point x="618.0" y="809.0" type="line"/>
      <point x="670.0" y="980.0" type="line"/>
      <point x="935.0" y="980.0" type="line"/>
      <point x="928.0" y="835.0" type="line"/>
    </contour>
  </outline>
</glyph>
<glyph name="asciitilde" format="2">
  <advance width="1011"/>
  <unicode hex="007E"/>
  <outline>
    <contour>
      <point x="121.0" y="651.0" type="line"/>
      <point x="185.0" y="744.0"/>
      <point x="359.0" y="876.0"/>
      <point x="430.0" y="876.0" type="qcurve"/>
      <point x="719.0" y="741.0" type="line"/>
      <point x="768.0" y="741.0"/>
      <point x="861.0" y="814.0"/>
      <point x="896.0" y="868.0" type="qcurve"/>
      <point x="987.0" y="771.0" type="line"/>
      <point x="930.0" y="667.0"/>
      <point x="761.0" y="516.0"/>
      <point x="654.0" y="516.0" type="qcurve"/>
      <point x="382.0" y="643.0" type="line"/>
      <point x="333.0" y="643.0"/>
      <point x="248.0" y="593.0"/>
      <point x="194.0" y="535.0" type="qcurve"/>
    </contour>
  </outline>
</glyph>
<glyph name="section" format="2">
  <advance width="950"/>
  <unicode hex="00A7"/>
  <outline>
    <contour>
      <point x="844.0" y="137.0" type="qcurve" smooth="yes"/>
      <point x="826.0" y="-44.0"/>
      <point x="576.0" y="-253.0"/>
      <point x="386.0" y="-253.0" type="qcurve" smooth="yes"/>
      <point x="200.0" y="-253.0"/>
      <point x="30.0" y="-112.0"/>
      <point x="23.0" y="1.0" type="qcurve" smooth="yes"/>
      <point x="21.0" y="57.0"/>
      <point x="61.0" y="162.0"/>
      <point x="90.0" y="196.0" type="qcurve"/>
      <point x="227.0" y="152.0" type="line"/>
      <point x="209.0" y="126.0"/>
      <point x="198.0" y="65.0"/>
      <point x="201.0" y="26.0" type="qcurve" smooth="yes"/>
      <point x="206.0" y="-30.0"/>
      <point x="299.0" y="-102.0"/>
      <point x="400.0" y="-102.0" type="qcurve" smooth="yes"/>
      <point x="496.0" y="-102.0"/>
      <point x="627.0" y="-1.0"/>
      <point x="636.0" y="84.0" type="qcurve" smooth="yes"/>
      <point x="646.0" y="176.0"/>
      <point x="559.0" y="319.0"/>
      <point x="392.0" y="401.0" type="qcurve" smooth="yes"/>
      <point x="257.0" y="468.0"/>
      <point x="152.0" y="653.0"/>
      <point x="175.0" y="795.0" type="qcurve" smooth="yes"/>
      <point x="188.0" y="879.0"/>
      <point x="293.0" y="1002.0"/>
      <point x="370.0" y="1038.0" type="qcurve"/>
      <point x="338.0" y="1075.0"/>
      <point x="310.0" y="1186.0"/>
      <point x="319.0" y="1246.0" type="qcurve" smooth="yes"/>
      <point x="337.0" y="1367.0"/>
      <point x="518.0" y="1512.0"/>
      <point x="663.0" y="1512.0" type="qcurve" smooth="yes"/>
      <point x="784.0" y="1512.0"/>
      <point x="913.0" y="1411.0"/>
      <point x="913.0" y="1328.0" type="qcurve" smooth="yes"/>
      <point x="913.0" y="1277.0"/>
      <point x="874.0" y="1190.0"/>
      <point x="851.0" y="1169.0" type="qcurve"/>
      <point x="737.0" y="1213.0" type="line"/>
      <point x="747.0" y="1236.0"/>
      <point x="758.0" y="1270.0"/>
      <point x="758.0" y="1294.0" type="qcurve"/>
      <point x="758.0" y="1334.0"/>
      <point x="696.0" y="1382.0"/>
      <point x="638.0" y="1382.0" type="qcurve" smooth="yes"/>
      <point x="578.0" y="1382.0"/>
      <point x="505.0" y="1321.0"/>
      <point x="498.0" y="1263.0" type="qcurve" smooth="yes"/>
      <point x="491.0" y="1212.0"/>
      <point x="545.0" y="1132.0"/>
      <point x="655.0" y="1097.0" type="qcurve" smooth="yes"/>
      <point x="788.0" y="1056.0"/>
      <point x="922.0" y="908.0"/>
      <point x="908.0" y="767.0" type="qcurve" smooth="yes"/>
      <point x="898.0" y="668.0"/>
      <point x="781.0" y="524.0"/>
      <point x="683.0" y="493.0" type="qcurve"/>
      <point x="772.0" y="438.0"/>
      <point x="857.0" y="264.0"/>
    </contour>
    <contour>
      <point x="368.0" y="807.0" type="qcurve" smooth="yes"/>
      <point x="358.0" y="744.0"/>
      <point x="432.0" y="644.0"/>
      <point x="537.0" y="592.0" type="qcurve"/>
      <point x="608.0" y="592.0"/>
      <point x="719.0" y="678.0"/>
      <point x="726.0" y="745.0" type="qcurve" smooth="yes"/>
      <point x="733.0" y="810.0"/>
      <point x="649.0" y="874.0"/>
      <point x="538.0" y="913.0" type="qcurve" smooth="yes"/>
      <point x="519.0" y="919.0"/>
      <point x="488.0" y="933.0"/>
      <point x="474.0" y="940.0" type="qcurve"/>
      <point x="436.0" y="922.0"/>
      <point x="375.0" y="855.0"/>
    </contour>
  </outline>
</glyph>
<glyph name="dieresis" format="2">
  <advance width="1024"/>
  <unicode hex="00A8"/>
  <outline>
    <contour>
      <point x="671.0" y="1264.0" type="qcurve" smooth="yes"/>
      <point x="671.0" y="1329.0"/>
      <point x="743.0" y="1398.0"/>
      <point x="809.0" y="1398.0" type="qcurve" smooth="yes"/>
      <point x="873.0" y="1398.0"/>
      <point x="947.0" y="1324.0"/>
      <point x="947.0" y="1264.0" type="qcurve" smooth="yes"/>
      <point x="947.0" y="1198.0"/>
      <point x="877.0" y="1128.0"/>
      <point x="809.0" y="1128.0" type="qcurve" smooth="yes"/>
      <point x="745.0" y="1128.0"/>
      <point x="671.0" y="1202.0"/>
    </contour>
    <contour>
      <point x="317.0" y="1264.0" type="qcurve" smooth="yes"/>
      <point x="317.0" y="1329.0"/>
      <point x="388.0" y="1398.0"/>
      <point x="455.0" y="1398.0" type="qcurve" smooth="yes"/>
      <point x="519.0" y="1398.0"/>
      <point x="593.0" y="1324.0"/>
      <point x="593.0" y="1264.0" type="qcurve" smooth="yes"/>
      <point x="593.0" y="1198.0"/>
      <point x="522.0" y="1128.0"/>
      <point x="455.0" y="1128.0" type="qcurve" smooth="yes"/>
      <point x="391.0" y="1128.0"/>
      <point x="317.0" y="1202.0"/>
    </contour>
  </outline>
</glyph>
<glyph name="guillemetleft" format="2">
  <advance width="1469"/>
  <unicode hex="00AB"/>
  <outline>
    <contour>
      <point x="59.0" y="644.0" type="line"/>
      <point x="59.0" y="644.0"/>
      <point x="655.0" y="1010.0"/>
      <point x="724.0" y="1054.0" type="qcurve" smooth="yes"/>
      <point x="835.0" y="1122.0"/>
      <point x="897.0" y="950.0"/>
      <point x="790.0" y="879.0" type="qcurve" smooth="yes"/>
      <point x="643.0" y="777.0"/>
      <point x="396.0" y="610.0"/>
      <point x="396.0" y="610.0" type="qcurve"/>
      <point x="396.0" y="610.0"/>
      <point x="617.0" y="403.0"/>
      <point x="685.0" y="329.0" type="qcurve" smooth="yes"/>
      <point x="758.0" y="252.0"/>
      <point x="667.0" y="116.0"/>
      <point x="585.0" y="164.0" type="qcurve" smooth="yes"/>
      <point x="533.0" y="195.0"/>
      <point x="107.0" y="536.0"/>
      <point x="48.0" y="584.0" type="qcurve"/>
    </contour>
    <contour>
      <point x="687.0" y="663.0" type="line"/>
      <point x="687.0" y="663.0"/>
      <point x="1283.0" y="1029.0"/>
      <point x="1352.0" y="1073.0" type="qcurve" smooth="yes"/>
      <point x="1463.0" y="1141.0"/>
      <point x="1525.0" y="969.0"/>
      <point x="1418.0" y="898.0" type="qcurve" smooth="yes"/>
      <point x="1271.0" y="796.0"/>
      <point x="1024.0" y="629.0"/>
      <point x="1024.0" y="629.0" type="qcurve"/>
      <point x="1024.0" y="629.0"/>
      <point x="1263.0" y="403.0"/>
      <point x="1331.0" y="329.0" type="qcurve" smooth="yes"/>
      <point x="1404.0" y="252.0"/>
      <point x="1313.0" y="116.0"/>
      <point x="1231.0" y="164.0" type="qcurve" smooth="yes"/>
      <point x="1179.0" y="195.0"/>
      <point x="735.0" y="555.0"/>
      <point x="676.0" y="603.0" type="qcurve"/>
    </contour>
  </outline>
</glyph>
<glyph name="registered" format="2">
  <advance width="1771"/>
  <unicode hex="00AE"/>
  <outline>
    <contour>
      <point x="141.0" y="685.0" type="qcurve" smooth="yes"/>
      <point x="141.0" y="1061.0"/>
      <point x="584.0" y="1570.0"/>
      <point x="927.0" y="1570.0" type="qcurve" smooth="yes"/>
      <point x="1269.0" y="1570.0"/>
      <point x="1710.0" y="1087.0"/>
      <point x="1710.0" y="706.0" type="qcurve" smooth="yes"/>
      <point x="1710.0" y="288.0"/>
      <point x="1275.0" y="-242.0"/>
      <point x="937.0" y="-242.0" type="qcurve" smooth="yes"/>
      <point x="590.0" y="-242.0"/>
      <point x="141.0" y="276.0"/>
    </contour>
    <contour>
      <point x="349.0" y="679.0" type="qcurve" smooth="yes"/>
      <point x="349.0" y="365.0"/>
      <point x="697.0" y="-48.0"/>
      <point x="948.0" y="-48.0" type="qcurve" smooth="yes"/>
      <point x="1192.0" y="-48.0"/>
      <point x="1502.0" y="387.0"/>
      <point x="1502.0" y="695.0" type="qcurve" smooth="yes"/>
      <point x="1502.0" y="976.0"/>
      <point x="1174.0" y="1376.0"/>
      <point x="912.0" y="1376.0" type="qcurve" smooth="yes"/>
      <point x="662.0" y="1376.0"/>
      <point x="349.0" y="968.0"/>
    </contour>
    <contour>
      <point x="551.0" y="176.0" type="line"/>
      <point x="552.0" y="266.0" type="line"/>
      <point x="632.0" y="290.0" type="line"/>
      <point x="641.0" y="723.0" type="line"/>
      <point x="632.0" y="1068.0" type="line"/>
      <point x="544.0" y="1091.0" type="line"/>
      <point x="544.0" y="1209.0" type="line"/>
      <point x="966.0" y="1209.0" type="line" smooth="yes"/>
      <point x="1100.0" y="1209.0"/>
      <point x="1260.0" y="1062.0"/>
      <point x="1260.0" y="928.0" type="qcurve" smooth="yes"/>
      <point x="1260.0" y="777.0"/>
      <point x="1071.0" y="614.0"/>
      <point x="964.0" y="614.0" type="qcurve" smooth="yes"/>
      <point x="921.0" y="614.0"/>
      <point x="842.0" y="623.0"/>
      <point x="822.0" y="623.0" type="qcurve"/>
      <point x="822.0" y="738.0" type="line"/>
      <point x="875.0" y="738.0" type="line" smooth="yes"/>
      <point x="976.0" y="738.0"/>
      <point x="1048.0" y="828.0"/>
      <point x="1048.0" y="919.0" type="qcurve" smooth="yes"/>
      <point x="1048.0" y="1009.0"/>
      <point x="979.0" y="1078.0"/>
      <point x="892.0" y="1078.0" type="qcurve" smooth="yes"/>
      <point x="871.0" y="1078.0" type="line"/>
      <point x="853.0" y="1065.0" type="line"/>
      <point x="842.0" y="703.0" type="line"/>
      <point x="851.0" y="290.0" type="line"/>
      <point x="923.0" y="266.0" type="line"/>
      <point x="923.0" y="176.0" type="line"/>
    </contour>
    <contour>
      <point x="872.0" y="690.0" type="line"/>
      <point x="1080.0" y="718.0" type="line"/>
      <point x="1233.0" y="393.0" type="line" smooth="yes"/>
      <point x="1283.0" y="290.0"/>
      <point x="1324.0" y="266.0"/>
      <point x="1359.0" y="266.0" type="qcurve"/>
      <point x="1359.0" y="176.0" type="line"/>
      <point x="1137.0" y="176.0" type="line"/>
      <point x="1101.0" y="190.0" type="line"/>
    </contour>
  </outline>
</glyph>
<glyph name="AE" format="2">
  <advance width="2038"/>
  <unicode hex="00C6"/>
  <outline>
    <contour>
      <point x="451.0" y="507.0" type="line"/>
      <point x="552.0" y="666.0" type="line"/>
      <point x="784.0" y="660.0" type="line"/>
      <point x="752.0" y="521.0" type="line"/>
    </contour>
    <contour>
      <point x="784.0" y="660.0" type="line"/>
      <point x="1100.0" y="668.0" type="line"/>
      <point x="1072.0" y="519.0" type="line"/>
      <point x="752.0" y="521.0" type="line"/>
    </contour>
    <contour>
      <point x="838.0" y="0.0" type="line"/>
      <point x="846.0" y="126.0" type="line"/>
      <point x="927.0" y="139.0" type="line"/>
      <point x="1063.0" y="819.0" type="line"/>
      <point x="1155.0" y="1327.0" type="line"/>
      <point x="873.0" y="1361.0" type="line"/>
      <point x="889.0" y="1500.0" type="line"/>
      <point x="2137.0" y="1500.0" type="line"/>
      <point x="2087.0" y="1139.0" type="line"/>
      <point x="1930.0" y="1139.0" type="line"/>
      <point x="1914.0" y="1342.0" type="line"/>
      <point x="1704.0" y="1342.0" type="line"/>
      <point x="1664.0" y="1318.0" type="line"/>
      <point x="1558.0" y="794.0" type="line"/>
      <point x="1453.0" y="246.0" type="line"/>
      <point x="1512.0" y="158.0" type="line"/>
      <point x="1751.0" y="158.0" type="line"/>
      <point x="1855.0" y="401.0" type="line"/>
      <point x="2011.0" y="401.0" type="line"/>
      <point x="1925.0" y="0.0" type="line"/>
    </contour>
    <contour>
      <point x="1296.0" y="710.0" type="line"/>
      <point x="1322.0" y="837.0" type="line"/>
      <point x="1744.0" y="848.0" type="line"/>
      <point x="1807.0" y="992.0" type="line"/>
      <point x="1939.0" y="992.0" type="line"/>
      <point x="1852.0" y="549.0" type="line"/>
      <point x="1715.0" y="549.0" type="line"/>
      <point x="1714.0" y="702.0" type="line"/>
    </contour>
    <contour>
      <point x="1135.0" y="1354.0" type="line"/>
      <point x="610.0" y="625.0" type="line"/>
      <point x="265.0" y="144.0" type="line"/>
      <point x="383.0" y="125.0" type="line"/>
      <point x="364.0" y="0.0" type="line"/>
      <point x="-90.0" y="0.0" type="line"/>
      <point x="-67.0" y="125.0" type="line"/>
      <point x="56.0" y="143.0" type="line"/>
      <point x="455.0" y="660.0" type="line"/>
      <point x="1004.0" y="1420.0" type="line"/>
    </contour>
  </outline>
</glyph>
<glyph name="multiply" format="2">
  <advance width="889"/>
  <unicode hex="00D7"/>
  <outline>
    <contour>
      <point x="259.0" y="237.0" type="line"/>
      <point x="88.0" y="411.0" type="line"/>
      <point x="761.0" y="1084.0" type="line"/>
      <point x="932.0" y="909.0" type="line"/>
    </contour>
    <contour>
      <point x="766.0" y="242.0" type="line"/>
      <point x="93.0" y="914.0" type="line"/>
      <point x="254.0" y="1079.0" type="line"/>
      <point x="927.0" y="406.0" type="line"/>
    </contour>
  </outline>
</glyph>
<glyph name="caron" format="2">
  <advance width="1024"/>
  <unicode hex="02C7"/>
  <outline>
    <contour>
      <point x="626.0" y="1145.0" type="qcurve" smooth="yes"/>
      <point x="587.0" y="1145.0"/>
      <point x="531.0" y="1185.0"/>
      <point x="498.0" y="1239.0" type="qcurve" smooth="yes"/>
      <point x="336.0" y="1508.0" type="line"/>
      <point x="443.0" y="1593.0" type="line"/>
      <point x="671.0" y="1375.0" type="line"/>
      <point x="983.0" y="1593.0" type="line"/>
      <point x="1056.0" y="1508.0" type="line"/>
      <point x="791.0" y="1239.0" type="line" smooth="yes"/>
      <point x="734.0" y="1182.0"/>
      <point x="666.0" y="1145.0"/>
    </contour>
  </outline>
</glyph>
<glyph name="Germandbls" format="2">
  <advance width="1687"/>
  <unicode hex="1E9E"/>
  <outline>
    <contour>
      <point x="627.0" y="-322.0" type="line"/>
      <point x="620.0" y="-448.0" type="line"/>
      <point x="-39.0" y="-448.0" type="line"/>
      <point x="-24.0" y="-322.0" type="line"/>
      <point x="56.0" y="-309.0" type="line"/>
      <point x="252.0" y="699.0" type="line"/>
      <point x="324.0" y="1077.0" type="line" smooth="yes"/>
      <point x="361.0" y="1271.0"/>
      <point x="699.0" y="1538.0"/>
      <point x="1110.0" y="1538.0" type="qcurve" smooth="yes"/>
      <point x="1204.0" y="1538.0"/>
      <point x="1378.0" y="1520.0"/>
      <point x="1435.0" y="1520.0" type="qcurve" smooth="yes"/>
      <point x="1450.0" y="1520.0" type="line"/>
      <point x="1471.0" y="1389.0" type="line"/>
      <point x="1411.0" y="1389.0"/>
      <point x="1296.0" y="1292.0"/>
      <point x="1292.0" y="1176.0" type="qcurve" smooth="yes"/>
      <point x="1289.0" y="1108.0"/>
      <point x="1337.0" y="995.0"/>
      <point x="1408.0" y="942.0" type="qcurve" smooth="yes"/>
      <point x="1541.0" y="842.0"/>
      <point x="1669.0" y="603.0"/>
      <point x="1661.0" y="445.0" type="qcurve" smooth="yes"/>
      <point x="1651.0" y="221.0"/>
      <point x="1391.0" y="-17.0"/>
      <point x="1140.0" y="-17.0" type="qcurve" smooth="yes"/>
      <point x="1048.0" y="-17.0"/>
      <point x="923.0" y="14.0"/>
      <point x="879.0" y="64.0" type="qcurve"/>
      <point x="849.0" y="-4.0" type="line"/>
      <point x="729.0" y="24.0" type="line"/>
      <point x="784.0" y="457.0" type="line"/>
      <point x="921.0" y="457.0" type="line"/>
      <point x="921.0" y="339.0" type="line" smooth="yes"/>
      <point x="921.0" y="249.0"/>
      <point x="1051.0" y="141.0"/>
      <point x="1102.0" y="141.0" type="qcurve" smooth="yes"/>
      <point x="1190.0" y="141.0"/>
      <point x="1279.0" y="255.0"/>
      <point x="1279.0" y="362.0" type="qcurve" smooth="yes"/>
      <point x="1279.0" y="456.0"/>
      <point x="1105.0" y="584.0"/>
      <point x="1027.0" y="661.0" type="qcurve" smooth="yes"/>
      <point x="958.0" y="727.0"/>
      <point x="876.0" y="914.0"/>
      <point x="889.0" y="1047.0" type="qcurve" smooth="yes"/>
      <point x="897.0" y="1154.0"/>
      <point x="1019.0" y="1361.0"/>
      <point x="1161.0" y="1404.0" type="qcurve"/>
      <point x="1041.0" y="1403.0"/>
      <point x="865.0" y="1252.0"/>
      <point x="832.0" y="1086.0" type="qcurve" smooth="yes"/>
      <point x="767.0" y="760.0" type="line"/>
      <point x="565.0" y="-304.0" type="line"/>
    </contour>
  </outline>
</glyph>
<glyph name="quoteleft" format="2">
  <advance width="523"/>
  <unicode hex="2018"/>
  <outline>
    <contour>
      <point x="615.0" y="1452.0" type="line"/>
      <point x="542.0" y="1406.0"/>
      <point x="437.0" y="1299.0"/>
      <point x="413.0" y="1243.0" type="qcurve"/>
      <point x="515.0" y="1243.0"/>
      <point x="620.0" y="1135.0"/>
      <point x="620.0" y="1052.0" type="qcurve" smooth="yes"/>
      <point x="620.0" y="970.0"/>
      <point x="493.0" y="849.0"/>
      <point x="404.0" y="849.0" type="qcurve" smooth="yes"/>
      <point x="315.0" y="849.0"/>
      <point x="201.0" y="957.0"/>
      <point x="201.0" y="1076.0" type="qcurve" smooth="yes"/>
      <point x="201.0" y="1210.0"/>
      <point x="372.0" y="1446.0"/>
      <point x="543.0" y="1539.0" type="qcurve"/>
    </contour>
  </outline>
</glyph>
<glyph name="approxequal" format="2">
  <advance width="889"/>
  <unicode hex="2248"/>
  <outline>
    <contour>
      <point x="124.0" y="851.0" type="line"/>
      <point x="173.0" y="944.0"/>
      <point x="317.0" y="1056.0"/>
      <point x="388.0" y="1056.0" type="qcurve"/>
      <point x="662.0" y="921.0" type="line"/>
      <point x="710.0" y="921.0"/>
      <point x="784.0" y="1009.0"/>
      <point x="810.0" y="1063.0" type="qcurve"/>
      <point x="882.0" y="911.0" type="line"/>
      <point x="842.0" y="807.0"/>
      <point x="727.0" y="666.0"/>
      <point x="621.0" y="666.0" type="qcurve"/>
      <point x="365.0" y="793.0" type="line"/>
      <point x="317.0" y="793.0"/>
      <point x="224.0" y="739.0"/>
      <point x="178.0" y="687.0" type="qcurve"/>
    </contour>
    <contour>
      <point x="124.0" y="461.0" type="line"/>
      <point x="173.0" y="554.0"/>
      <point x="317.0" y="666.0"/>
      <point x="388.0" y="666.0" type="qcurve"/>
      <point x="662.0" y="531.0" type="line"/>
      <point x="710.0" y="531.0"/>
      <point x="784.0" y="619.0"/>
      <point x="810.0" y="673.0" type="qcurve"/>
      <point x="882.0" y="521.0" type="line"/>
      <point x="842.0" y="417.0"/>
      <point x="727.0" y="276.0"/>
      <point x="621.0" y="276.0" type="qcurve"/>
      <point x="365.0" y="403.0" type="line"/>
      <point x="317.0" y="403.0"/>
      <point x="224.0" y="349.0"/>
      <point x="178.0" y="297.0" type="qcurve"/>
    </contour>
  </outline>
</glyph>
<glyph name="f_f" format="2">
  <advance width="1560"/>
  <unicode hex="FB00"/>
  <outline>
    <contour>
      <point x="-268.0" y="-425.0" type="line" smooth="yes"/>
      <point x="-250.0" y="-313.0" type="line"/>
      <point x="-156.0" y="-311.0" type="line" smooth="yes"/>
      <point x="-38.0" y="-308.0"/>
      <point x="69.0" y="-137.0"/>
      <point x="121.0" y="165.0" type="qcurve" smooth="yes"/>
      <point x="251.0" y="905.0" type="line"/>
      <point x="263.0" y="942.0" type="line"/>
      <point x="310.0" y="1179.0" type="line" smooth="yes"/>
      <point x="345.0" y="1356.0"/>
      <point x="624.0" y="1532.0"/>
      <point x="814.0" y="1532.0" type="qcurve" smooth="yes"/>
      <point x="959.0" y="1532.0"/>
      <point x="1119.0" y="1449.0"/>
      <point x="1119.0" y="1369.0" type="qcurve" smooth="yes"/>
      <point x="1119.0" y="1299.0"/>
      <point x="1036.0" y="1214.0"/>
      <point x="992.0" y="1214.0" type="qcurve" smooth="yes"/>
      <point x="967.0" y="1214.0"/>
      <point x="944.0" y="1228.0"/>
      <point x="944.0" y="1257.0" type="qcurve" smooth="yes"/>
      <point x="944.0" y="1290.0"/>
      <point x="915.0" y="1367.0"/>
      <point x="874.0" y="1367.0" type="qcurve" smooth="yes"/>
      <point x="836.0" y="1367.0"/>
      <point x="788.0" y="1283.0"/>
      <point x="772.0" y="1183.0" type="qcurve" smooth="yes"/>
      <point x="730.0" y="938.0" type="line"/>
      <point x="729.0" y="913.0" type="line"/>
      <point x="600.0" y="199.0" type="line" smooth="yes"/>
      <point x="525.0" y="-224.0"/>
      <point x="164.0" y="-464.0"/>
      <point x="-72.0" y="-464.0" type="qcurve"/>
    </contour>
    <contour>
      <point x="464.0" y="-365.0" type="line" smooth="yes"/>
      <point x="481.0" y="-254.0" type="line"/>
      <point x="575.0" y="-252.0" type="line" smooth="yes"/>
      <point x="693.0" y="-249.0"/>
      <point x="799.0" y="-79.0"/>
      <point x="852.0" y="224.0" type="qcurve" smooth="yes"/>
      <point x="972.0" y="905.0" type="line"/>
      <point x="984.0" y="942.0" type="line"/>
      <point x="1041.0" y="1229.0" type="line" smooth="yes"/>
      <point x="1076.0" y="1404.0"/>
      <point x="1355.0" y="1582.0"/>
      <point x="1545.0" y="1582.0" type="qcurve" smooth="yes"/>
      <point x="1690.0" y="1582.0"/>
      <point x="1850.0" y="1499.0"/>
      <point x="1850.0" y="1419.0" type="qcurve" smooth="yes"/>
      <point x="1850.0" y="1349.0"/>
      <point x="1767.0" y="1264.0"/>
      <point x="1723.0" y="1264.0" type="qcurve" smooth="yes"/>
      <point x="1698.0" y="1264.0"/>
      <point x="1675.0" y="1278.0"/>
      <point x="1675.0" y="1307.0" type="qcurve" smooth="yes"/>
      <point x="1675.0" y="1340.0"/>
      <point x="1646.0" y="1417.0"/>
      <point x="1605.0" y="1417.0" type="qcurve" smooth="yes"/>
      <point x="1567.0" y="1417.0"/>
      <point x="1520.0" y="1332.0"/>
      <point x="1503.0" y="1233.0" type="qcurve" smooth="yes"/>
      <point x="1452.0" y="938.0" type="line"/>
      <point x="1451.0" y="913.0" type="line"/>
      <point x="1331.0" y="258.0" type="line" smooth="yes"/>
      <point x="1254.0" y="-167.0"/>
      <point x="895.0" y="-405.0"/>
      <point x="659.0" y="-405.0" type="qcurve"/>
    </contour>
    <contour>
      <point x="107.0" y="814.0" type="line"/>
      <point x="106.0" y="938.0" type="line"/>
      <point x="275.0" y="980.0" type="line"/>
      <point x="1620.0" y="980.0" type="line"/>
      <point x="1605.0" y="808.0" type="line"/>
      <point x="677.0" y="815.0" type="line"/>
      <point x="270.0" y="797.0" type="line"/>
    </contour>
  </outline>
</glyph>
<glyph name="fl" format="2">
  <advance width="1449"/>
  <unicode hex="FB02"/>
  <outline>
    <contour>
      <point x="-269.0" y="-424.0" type="line"/>
      <point x="-250.0" y="-313.0" type="line"/>
      <point x="-156.0" y="-311.0" type="line" smooth="yes"/>
      <point x="-38.0" y="-308.0"/>
      <point x="69.0" y="-137.0"/>
      <point x="113.0" y="118.0" type="qcurve" smooth="yes"/>
      <point x="251.0" y="905.0" type="line"/>
      <point x="263.0" y="942.0" type="line"/>
      <point x="334.0" y="1308.0" type="line" smooth="yes"/>
      <point x="351.0" y="1407.0"/>
      <point x="597.0" y="1582.0"/>
      <point x="787.0" y="1582.0" type="qcurve" smooth="yes"/>
      <point x="932.0" y="1582.0"/>
      <point x="1082.0" y="1502.0"/>
      <point x="1082.0" y="1422.0" type="qcurve" smooth="yes"/>
      <point x="1082.0" y="1352.0"/>
      <point x="999.0" y="1267.0"/>
      <point x="955.0" y="1267.0" type="qcurve" smooth="yes"/>
      <point x="930.0" y="1267.0"/>
      <point x="907.0" y="1281.0"/>
      <point x="907.0" y="1310.0" type="qcurve" smooth="yes"/>
      <point x="907.0" y="1343.0"/>
      <point x="888.0" y="1417.0"/>
      <point x="847.0" y="1417.0" type="qcurve" smooth="yes"/>
      <point x="809.0" y="1417.0"/>
      <point x="793.0" y="1333.0"/>
      <point x="792.0" y="1312.0" type="qcurve" smooth="yes"/>
      <point x="731.0" y="940.0" type="line"/>
      <point x="730.0" y="915.0" type="line"/>
      <point x="591.0" y="153.0" type="line" smooth="yes"/>
      <point x="523.0" y="-225.0"/>
      <point x="164.0" y="-464.0"/>
      <point x="-72.0" y="-464.0" type="qcurve"/>
    </contour>
    <contour>
      <point x="107.0" y="814.0" type="line"/>
      <point x="106.0" y="938.0" type="line"/>
      <point x="275.0" y="980.0" type="line"/>
      <point x="1019.0" y="982.0" type="line"/>
      <point x="1004.0" y="810.0" type="line"/>
      <point x="677.0" y="815.0" type="line"/>
      <point x="270.0" y="797.0" type="line"/>
    </contour>
    <contour>
      <point x="816.0" y="-25.0" type="line"/>
      <point x="771.0" y="100.0" type="line"/>
      <point x="884.0" y="606.0" type="line"/>
      <point x="1020.0" y="1340.0" type="line"/>
      <point x="898.0" y="1425.0" type="line"/>
      <point x="934.0" y="1509.0" type="line"/>
      <point x="1420.0" y="1579.0" type="line"/>
      <point x="1500.0" y="1478.0" type="line"/>
      <point x="1335.0" y="588.0" type="line"/>
      <point x="1261.0" y="195.0" type="line"/>
      <point x="1444.0" y="190.0" type="line"/>
      <point x="1435.0" y="63.0" type="line"/>
    </contour>
  </outline>
</glyph>
<glyph name="dblgravecomb" format="2">
  <advance width="1024"/>
  <outline>
    <contour>
      <point x="48.0" y="1378.0" type="qcurve" smooth="yes"/>
      <point x="44.0" y="1419.0"/>
      <point x="111.0" y="1500.0"/>
      <point x="160.0" y="1507.0" type="qcurve" smooth="yes"/>
      <point x="205.0" y="1515.0"/>
      <point x="294.0" y="1460.0"/>
      <point x="330.0" y="1417.0" type="qcurve" smooth="yes"/>
      <point x="507.0" y="1206.0" type="line"/>
      <point x="441.0" y="1119.0" type="line"/>
      <point x="130.0" y="1262.0" type="line" smooth="yes"/>
      <point x="84.0" y="1281.0"/>
      <point x="51.0" y="1337.0"/>
    </contour>
    <contour>
      <point x="471.0" y="1386.0" type="qcurve" smooth="yes"/>
      <point x="467.0" y="1428.0"/>
      <point x="534.0" y="1508.0"/>
      <point x="582.0" y="1516.0" type="qcurve" smooth="yes"/>
      <point x="628.0" y="1525.0"/>
      <point x="711.0" y="1469.0"/>
      <point x="747.0" y="1427.0" type="qcurve" smooth="yes"/>
      <point x="930.0" y="1216.0" type="line"/>
      <point x="864.0" y="1128.0" type="line"/>
      <point x="547.0" y="1272.0" type="line" smooth="yes"/>
      <point x="500.0" y="1290.0"/>
      <point x="474.0" y="1346.0"/>
    </contour>
  </outline>
</glyph>
<glyph name="dotaccentcombstack.case" format="2">
  <advance width="1024"/>
  <outline>
    <contour>
      <point x="460.0" y="1790.0" type="qcurve" smooth="yes"/>
      <point x="460.0" y="1865.0"/>
      <point x="541.0" y="1944.0"/>
      <point x="617.0" y="1944.0" type="qcurve" smooth="yes"/>
      <point x="689.0" y="1944.0"/>
      <point x="774.0" y="1859.0"/>
      <point x="774.0" y="1790.0" type="qcurve" smooth="yes"/>
      <point x="774.0" y="1716.0"/>
      <point x="695.0" y="1636.0"/>
      <point x="617.0" y="1636.0" type="qcurve" smooth="yes"/>
      <point x="545.0" y="1636.0"/>
      <point x="460.0" y="1720.0"/>
    </contour>
  </outline>
</glyph>
<glyph name="eight.lf" format="2">
  <advance width="1156"/>
  <outline>
    <contour>
      <point x="46.0" y="326.0" type="qcurve" smooth="yes"/>
      <point x="46.0" y="497.0"/>
      <point x="319.0" y="764.0"/>
      <point x="569.0" y="861.0" type="qcurve"/>
      <point x="676.0" y="765.0" type="line"/>
      <point x="543.0" y="696.0"/>
      <point x="347.0" y="485.0"/>
      <point x="347.0" y="345.0" type="qcurve" smooth="yes"/>
      <point x="347.0" y="255.0"/>
      <point x="427.0" y="132.0"/>
      <point x="541.0" y="132.0" type="qcurve" smooth="yes"/>
      <point x="658.0" y="132.0"/>
      <point x="747.0" y="260.0"/>
      <point x="749.0" y="379.0" type="qcurve" smooth="yes"/>
      <point x="751.0" y="476.0"/>
      <point x="573.0" y="664.0"/>
      <point x="501.0" y="708.0" type="qcurve" smooth="yes"/>
      <point x="386.0" y="780.0"/>
      <point x="242.0" y="977.0"/>
      <point x="242.0" y="1123.0" type="qcurve" smooth="yes"/>
      <point x="242.0" y="1293.0"/>
      <point x="481.0" y="1523.0"/>
      <point x="787.0" y="1523.0" type="qcurve" smooth="yes"/>
      <point x="1003.0" y="1523.0"/>
      <point x="1196.0" y="1338.0"/>
      <point x="1186.0" y="1196.0" type="qcurve" smooth="yes"/>
      <point x="1176.0" y="1065.0"/>
      <point x="971.0" y="890.0"/>
      <point x="743.0" y="795.0" type="qcurve"/>
      <point x="628.0" y="893.0" type="line"/>
      <point x="751.0" y="961.0"/>
      <point x="906.0" y="1104.0"/>
      <point x="906.0" y="1210.0" type="qcurve" smooth="yes"/>
      <point x="906.0" y="1276.0"/>
      <point x="841.0" y="1367.0"/>
      <point x="772.0" y="1367.0" type="qcurve" smooth="yes"/>
      <point x="685.0" y="1367.0"/>
      <point x="605.0" y="1267.0"/>
      <point x="605.0" y="1184.0" type="qcurve" smooth="yes"/>
      <point x="605.0" y="1098.0"/>
      <point x="768.0" y="964.0"/>
      <point x="866.0" y="893.0" type="qcurve" smooth="yes"/>
      <point x="1042.0" y="774.0"/>
      <point x="1125.0" y="605.0"/>
      <point x="1125.0" y="455.0" type="qcurve" smooth="yes"/>
      <point x="1125.0" y="234.0"/>
      <point x="803.0" y="-17.0"/>
      <point x="498.0" y="-17.0" type="qcurve" smooth="yes"/>
      <point x="270.0" y="-17.0"/>
      <point x="46.0" y="168.0"/>
    </contour>
  </outline>
</glyph>
<glyph name="hookabovecombstack.case" format="2">
  <advance width="1024"/>
  <outline>
    <contour>
      <point x="450.0" y="1623.0" type="line"/>
      <point x="485.0" y="1818.0" type="line"/>
      <point x="574.0" y="1871.0" type="line"/>
      <point x="597.0" y="1864.0"/>
      <point x="645.0" y="1857.0"/>
      <point x="663.0" y="1857.0" type="qcurve" smooth="yes"/>
      <point x="714.0" y="1857.0"/>
      <point x="790.0" y="1910.0"/>
      <point x="793.0" y="1955.0" type="qcurve" smooth="yes"/>
      <point x="795.0" y="1992.0"/>
      <point x="738.0" y="2028.0"/>
      <point x="680.0" y="2028.0" type="qcurve" smooth="yes"/>
      <point x="638.0" y="2028.0"/>
      <point x="552.0" y="2003.0"/>
      <point x="493.0" y="1980.0" type="qcurve"/>
      <point x="469.0" y="2120.0" type="line"/>
      <point x="527.0" y="2147.0"/>
      <point x="679.0" y="2188.0"/>
      <point x="734.0" y="2188.0" type="qcurve" smooth="yes"/>
      <point x="896.0" y="2188.0"/>
      <point x="1024.0" y="2067.0"/>
      <point x="1026.0" y="1986.0" type="qcurve" smooth="yes"/>
      <point x="1026.0" y="1860.0"/>
      <point x="866.0" y="1722.0"/>
      <point x="736.0" y="1722.0" type="qcurve" smooth="yes"/>
      <point x="694.0" y="1722.0"/>
      <point x="643.0" y="1727.0"/>
      <point x="625.0" y="1731.0" type="qcurve"/>
      <point x="606.0" y="1623.0" type="line"/>
    </contour>
  </outline>
</glyph>
<glyph name="ringcomb.case" format="2">
  <advance width="1024"/>
  <outline>
    <contour>
      <point x="333.0" y="1855.0" type="qcurve" smooth="yes"/>
      <point x="333.0" y="1968.0"/>
      <point x="498.0" y="2127.0"/>
      <point x="614.0" y="2127.0" type="qcurve" smooth="yes"/>
      <point x="731.0" y="2127.0"/>
      <point x="896.0" y="1968.0"/>
      <point x="896.0" y="1855.0" type="qcurve" smooth="yes"/>
      <point x="896.0" y="1742.0"/>
      <point x="731.0" y="1584.0"/>
      <point x="614.0" y="1584.0" type="qcurve" smooth="yes"/>
      <point x="498.0" y="1584.0"/>
      <point x="333.0" y="1742.0"/>
    </contour>
    <contour>
      <point x="482.0" y="1855.0" type="qcurve" smooth="yes"/>
      <point x="482.0" y="1792.0"/>
      <point x="551.0" y="1723.0"/>
      <point x="614.0" y="1723.0" type="qcurve" smooth="yes"/>
      <point x="677.0" y="1723.0"/>
      <point x="746.0" y="1791.0"/>
      <point x="746.0" y="1855.0" type="qcurve" smooth="yes"/>
      <point x="746.0" y="1917.0"/>
      <point x="677.0" y="1987.0"/>
      <point x="614.0" y="1987.0" type="qcurve" smooth="yes"/>
      <point x="551.0" y="1987.0"/>
      <point x="482.0" y="1919.0"/>
    </contour>
  </outline>
</glyph>
<glyph name="six.lc" format="2">
  <advance width="1167"/>
  <outline>
    <contour>
      <point x="28.0" y="440.0" type="qcurve" smooth="yes"/>
      <point x="53.0" y="769.0"/>
      <point x="702.0" y="1218.0"/>
      <point x="1108.0" y="1273.0" type="qcurve"/>
      <point x="1147.0" y="1129.0" type="line"/>
      <point x="884.0" y="1070.0"/>
      <point x="503.0" y="704.0"/>
      <point x="475.0" y="415.0" type="qcurve" smooth="yes"/>
      <point x="460.0" y="265.0"/>
      <point x="490.0" y="114.0"/>
      <point x="551.0" y="106.0" type="qcurve" smooth="yes"/>
      <point x="623.0" y="98.0"/>
      <point x="703.0" y="227.0"/>
      <point x="722.0" y="383.0" type="qcurve" smooth="yes"/>
      <point x="734.0" y="480.0"/>
      <point x="712.0" y="587.0"/>
      <point x="660.0" y="587.0" type="qcurve" smooth="yes"/>
      <point x="638.0" y="587.0"/>
      <point x="591.0" y="573.0"/>
      <point x="559.0" y="546.0" type="qcurve"/>
      <point x="550.0" y="659.0" type="line"/>
      <point x="586.0" y="694.0"/>
      <point x="720.0" y="745.0"/>
      <point x="805.0" y="745.0" type="qcurve" smooth="yes"/>
      <point x="979.0" y="745.0"/>
      <point x="1151.0" y="559.0"/>
      <point x="1137.0" y="412.0" type="qcurve" smooth="yes"/>
      <point x="1118.0" y="193.0"/>
      <point x="772.0" y="-31.0"/>
      <point x="519.0" y="-31.0" type="qcurve" smooth="yes"/>
      <point x="271.0" y="-31.0"/>
      <point x="9.0" y="224.0"/>
    </contour>
  </outline>
</glyph>
<glyph name="six.tab" format="2">
  <advance width="1283"/>
  <outline>
    <contour>
      <point x="112.0" y="471.0" type="qcurve" smooth="yes"/>
      <point x="149.0" y="925.0"/>
      <point x="803.0" y="1430.0"/>
      <point x="1234.0" y="1551.0" type="qcurve"/>
      <point x="1267.0" y="1396.0" type="line"/>
      <point x="1014.0" y="1297.0"/>
      <point x="596.0" y="829.0"/>
      <point x="565.0" y="446.0" type="qcurve" smooth="yes"/>
      <point x="552.0" y="286.0"/>
      <point x="585.0" y="126.0"/>
      <point x="651.0" y="126.0" type="qcurve" smooth="yes"/>
      <point x="704.0" y="126.0"/>
      <point x="799.0" y="319.0"/>
      <point x="825.0" y="470.0" type="qcurve" smooth="yes"/>
      <point x="844.0" y="617.0"/>
      <point x="787.0" y="718.0"/>
      <point x="748.0" y="718.0" type="qcurve" smooth="yes"/>
      <point x="728.0" y="718.0"/>
      <point x="694.0" y="710.0"/>
      <point x="664.0" y="681.0" type="qcurve"/>
      <point x="657.0" y="802.0" type="line"/>
      <point x="690.0" y="840.0"/>
      <point x="817.0" y="886.0"/>
      <point x="896.0" y="886.0" type="qcurve" smooth="yes"/>
      <point x="1058.0" y="886.0"/>
      <point x="1256.0" y="698.0"/>
      <point x="1240.0" y="509.0" type="qcurve" smooth="yes"/>
      <point x="1220.0" y="254.0"/>
      <point x="864.0" y="-18.0"/>
      <point x="621.0" y="-18.0" type="qcurve" smooth="yes"/>
      <point x="398.0" y="-18.0"/>
      <point x="90.0" y="235.0"/>
    </contour>
  </outline>
</glyph>
<glyph name="tildecombstack.case" format="2">
  <advance width="1024"/>
  <outline>
    <contour>
      <point x="222.0" y="1766.0" type="line"/>
      <point x="268.0" y="1846.0"/>
      <point x="411.0" y="1965.0"/>
      <point x="486.0" y="1965.0" type="qcurve" smooth="yes"/>
      <point x="527.0" y="1965.0"/>
      <point x="586.0" y="1943.0"/>
      <point x="624.0" y="1916.0" type="qcurve" smooth="yes"/>
      <point x="652.0" y="1895.0"/>
      <point x="722.0" y="1856.0"/>
      <point x="762.0" y="1856.0" type="qcurve" smooth="yes"/>
      <point x="800.0" y="1856.0"/>
      <point x="888.0" y="1898.0"/>
      <point x="916.0" y="1938.0" type="qcurve"/>
      <point x="954.0" y="1846.0" type="line"/>
      <point x="901.0" y="1753.0"/>
      <point x="784.0" y="1658.0"/>
      <point x="721.0" y="1658.0" type="qcurve" smooth="yes"/>
      <point x="668.0" y="1658.0"/>
      <point x="582.0" y="1702.0"/>
      <point x="556.0" y="1719.0" type="qcurve" smooth="yes"/>
      <point x="518.0" y="1743.0"/>
      <point x="462.0" y="1767.0"/>
      <point x="434.0" y="1767.0" type="qcurve" smooth="yes"/>
      <point x="388.0" y="1767.0"/>
      <point x="291.0" y="1701.0"/>
      <point x="269.0" y="1670.0" type="qcurve"/>
    </contour>
  </outline>
</glyph>
<glyph name="two.lf" format="2">
  <advance width="1093"/>
  <outline>
    <contour>
      <point x="-5.0" y="6.0" type="qcurve"/>
      <point x="-74.0" y="117.0" type="line"/>
      <point x="64.0" y="234.0" type="line" smooth="yes"/>
      <point x="244.0" y="384.0"/>
      <point x="669.0" y="892.0"/>
      <point x="679.0" y="1077.0" type="qcurve" smooth="yes"/>
      <point x="684.0" y="1175.0"/>
      <point x="605.0" y="1276.0"/>
      <point x="499.0" y="1276.0" type="qcurve" smooth="yes"/>
      <point x="422.0" y="1276.0"/>
      <point x="297.0" y="1211.0"/>
      <point x="234.0" y="1146.0" type="qcurve"/>
      <point x="168.0" y="1284.0" type="line"/>
      <point x="243.0" y="1390.0"/>
      <point x="478.0" y="1510.0"/>
      <point x="649.0" y="1510.0" type="qcurve" smooth="yes"/>
      <point x="891.0" y="1510.0"/>
      <point x="1108.0" y="1305.0"/>
      <point x="1108.0" y="1151.0" type="qcurve" smooth="yes"/>
      <point x="1108.0" y="844.0"/>
      <point x="565.0" y="364.0"/>
      <point x="480.0" y="346.0" type="qcurve"/>
      <point x="481.0" y="344.0" type="line"/>
      <point x="494.0" y="345.0"/>
      <point x="527.0" y="346.0"/>
      <point x="540.0" y="347.0" type="qcurve"/>
      <point x="662.0" y="318.0"/>
      <point x="713.854" y="302.363"/>
      <point x="839.0" y="273.0" type="qcurve"/>
      <point x="941.0" y="452.0" type="line"/>
      <point x="1077.0" y="419.0" type="line"/>
      <point x="906.0" y="-30.0" type="line"/>
      <point x="768.0" y="7.0"/>
      <point x="554.0" y="66.0"/>
      <point x="424.0" y="69.0" type="qcurve" smooth="yes"/>
      <point x="340.0" y="71.0"/>
      <point x="60.0" y="33.0"/>
    </contour>
  </outline>
</glyph>
